<svg id="svg" version="1.1" xmlns="http://www.w3.org/2000/svg" xmlns:xlink="http://www.w3.org/1999/xlink" width="400" height="411.91860465116275" viewBox="0, 0, 400,411.91860465116275"><g id="svgg"><path id="path0" d="M208.350 0.476 C 208.149 0.801,204.639 11.671,192.590 49.273 C 184.501 74.519,180.956 85.559,178.494 93.169 C 176.330 99.859,160.244 149.227,157.419 157.849 C 155.564 163.511,152.528 172.830,146.148 192.442 L 144.588 197.238 207.235 197.312 C 241.691 197.352,269.971 197.287,270.079 197.166 C 270.241 196.985,274.057 185.440,278.194 172.609 L 279.105 169.783 265.686 138.313 C 258.305 121.005,252.227 106.639,252.179 106.390 C 252.131 106.142,250.462 102.084,248.470 97.373 C 244.200 87.275,242.453 83.050,236.757 69.041 C 234.417 63.285,230.539 53.801,228.140 47.965 C 225.741 42.129,222.397 33.953,220.709 29.797 C 219.022 25.640,217.024 20.734,216.270 18.895 C 215.516 17.057,213.781 12.803,212.415 9.443 C 209.050 1.163,208.574 0.114,208.350 0.476 M2.072 199.642 C 3.895 201.578,57.964 259.197,90.791 294.186 C 100.017 304.019,107.665 312.098,107.788 312.139 C 107.970 312.201,117.397 282.976,143.187 202.398 L 144.699 197.674 72.460 197.674 L 0.220 197.674 2.072 199.642 " stroke="none" fill="#5b5b5b" fill-rule="evenodd"></path><path id="path1" d="M310.683 74.348 C 310.403 74.410,310.174 74.578,310.174 74.721 C 310.174 74.865,309.957 74.898,309.691 74.796 C 309.417 74.691,309.281 74.730,309.377 74.886 C 309.471 75.038,308.675 75.607,307.608 76.151 C 306.541 76.695,305.310 77.386,304.871 77.687 C 304.433 77.988,303.909 78.140,303.708 78.024 C 303.507 77.908,303.442 77.923,303.563 78.056 C 303.768 78.282,295.919 82.802,295.672 82.600 C 295.610 82.550,295.479 82.629,295.381 82.776 C 295.284 82.922,294.353 83.483,293.314 84.021 C 292.275 84.559,291.066 85.243,290.627 85.541 C 290.188 85.839,289.678 85.989,289.492 85.875 C 289.306 85.760,289.230 85.788,289.322 85.937 C 289.414 86.087,288.486 86.744,287.260 87.397 C 286.033 88.051,284.211 89.054,283.212 89.626 C 282.213 90.198,281.393 90.575,281.391 90.464 C 281.388 90.353,281.290 90.403,281.173 90.577 C 281.055 90.750,280.109 91.332,279.070 91.870 C 278.031 92.407,276.853 93.064,276.453 93.328 C 274.928 94.335,270.683 96.458,270.520 96.295 C 270.426 96.201,270.349 96.279,270.349 96.468 C 270.349 96.657,269.858 97.033,269.259 97.304 C 268.659 97.575,267.940 97.986,267.660 98.217 C 267.380 98.448,267.149 98.518,267.147 98.374 C 267.144 98.229,267.046 98.247,266.929 98.415 C 266.637 98.831,256.940 104.167,256.476 104.167 C 256.272 104.167,256.105 104.283,256.105 104.425 C 256.105 104.567,255.521 104.942,254.809 105.257 C 254.096 105.573,253.433 105.960,253.335 106.118 C 253.237 106.276,253.049 106.338,252.917 106.256 C 252.027 105.706,253.826 110.177,265.789 138.252 L 279.178 169.673 280.582 165.433 C 281.354 163.100,282.026 160.996,282.075 160.756 C 282.462 158.883,283.261 156.727,283.512 156.882 C 283.676 156.983,283.729 156.934,283.628 156.771 C 283.481 156.533,284.882 151.868,285.661 150.000 C 285.761 149.760,285.892 149.313,285.951 149.005 C 286.010 148.698,286.202 148.273,286.379 148.061 C 286.555 147.848,286.623 147.674,286.530 147.674 C 286.438 147.674,287.079 145.614,287.956 143.096 C 288.832 140.578,289.595 138.387,289.651 138.227 C 289.706 138.067,289.783 137.805,289.821 137.645 C 289.894 137.339,291.195 133.594,291.487 132.849 C 291.581 132.609,291.695 132.230,291.740 132.006 C 291.785 131.782,291.929 131.520,292.059 131.424 C 292.190 131.329,292.332 130.929,292.376 130.536 C 292.420 130.143,292.564 129.751,292.696 129.664 C 292.828 129.577,292.938 129.310,292.942 129.070 C 292.950 128.526,295.013 122.157,295.437 121.366 C 295.609 121.047,295.772 120.589,295.799 120.349 C 295.844 119.955,298.005 113.559,298.450 112.500 C 298.551 112.260,298.683 111.808,298.743 111.495 C 298.803 111.182,298.953 110.855,299.077 110.768 C 299.200 110.682,299.322 110.285,299.347 109.888 C 299.372 109.491,299.530 109.120,299.698 109.064 C 299.866 109.008,299.939 108.857,299.860 108.729 C 299.653 108.395,300.295 106.686,300.627 106.686 C 300.781 106.686,300.835 106.571,300.748 106.430 C 300.617 106.217,301.001 104.930,302.474 100.651 C 302.544 100.449,302.610 100.223,302.622 100.147 C 302.665 99.881,304.994 93.215,305.305 92.470 C 305.478 92.055,305.634 91.650,305.651 91.570 C 305.934 90.257,306.532 88.663,306.741 88.663 C 306.890 88.663,306.941 88.549,306.855 88.411 C 306.698 88.157,308.083 83.699,308.403 83.430 C 308.498 83.350,308.577 83.154,308.579 82.994 C 308.582 82.834,309.217 80.831,309.990 78.543 C 311.479 74.142,311.474 74.172,310.683 74.348 M0.158 197.654 C 0.066 197.803,0.144 198.020,0.331 198.135 C 0.543 198.267,0.593 198.220,0.464 198.011 C 0.308 197.758,18.040 197.657,72.440 197.602 L 144.622 197.528 72.474 197.456 C 28.175 197.412,0.260 197.488,0.158 197.654 M4.070 202.180 C 4.612 202.740,5.121 203.198,5.201 203.198 C 5.281 203.198,4.903 202.740,4.360 202.180 C 3.818 201.621,3.309 201.163,3.229 201.163 C 3.149 201.163,3.527 201.621,4.070 202.180 M8.418 206.759 C 9.131 207.518,9.752 208.140,9.799 208.140 C 10.017 208.140,9.786 207.879,8.503 206.674 L 7.122 205.378 8.418 206.759 M13.360 211.991 C 14.073 212.751,14.694 213.372,14.741 213.372 C 14.959 213.372,14.728 213.111,13.445 211.906 L 12.064 210.610 13.360 211.991 M18.314 217.297 C 18.856 217.856,19.366 218.314,19.445 218.314 C 19.525 218.314,19.147 217.856,18.605 217.297 C 18.062 216.737,17.553 216.279,17.473 216.279 C 17.393 216.279,17.772 216.737,18.314 217.297 M26.744 226.254 C 26.744 226.304,27.169 226.729,27.689 227.199 L 28.634 228.052 27.780 227.108 C 26.984 226.227,26.744 226.029,26.744 226.254 " stroke="none" fill="#444444" fill-rule="evenodd"></path><path id="path2" d="M207.547 197.602 L 144.890 197.676 128.061 250.219 C 118.805 279.117,110.528 304.961,109.668 307.649 C 108.808 310.338,107.990 312.496,107.849 312.446 C 107.708 312.396,104.160 308.692,99.963 304.215 C 95.766 299.738,84.541 287.772,75.018 277.623 C 65.495 267.473,55.614 256.943,53.061 254.221 C 50.508 251.500,47.319 248.161,45.976 246.802 C 42.752 243.541,48.731 249.953,130.511 337.457 C 168.796 378.421,200.266 411.901,200.443 411.856 C 200.621 411.810,233.657 376.451,273.857 333.280 C 314.057 290.108,358.852 242.002,373.401 226.376 C 387.950 210.751,399.898 197.835,399.951 197.675 C 400.046 197.390,390.046 197.386,207.547 197.602 M19.477 218.750 C 20.019 219.310,20.528 219.767,20.608 219.767 C 20.688 219.767,20.310 219.310,19.767 218.750 C 19.225 218.190,18.716 217.733,18.636 217.733 C 18.556 217.733,18.934 218.190,19.477 218.750 M23.983 223.547 C 24.607 224.186,25.183 224.709,25.263 224.709 C 25.343 224.709,24.898 224.186,24.273 223.547 C 23.649 222.907,23.072 222.384,22.992 222.384 C 22.913 222.384,23.358 222.907,23.983 223.547 M28.488 228.343 C 29.357 229.222,30.133 229.942,30.213 229.942 C 30.293 229.942,29.648 229.222,28.779 228.343 C 27.911 227.464,27.135 226.744,27.055 226.744 C 26.975 226.744,27.620 227.464,28.488 228.343 M32.703 232.849 C 33.653 233.808,34.495 234.593,34.575 234.593 C 34.655 234.593,33.943 233.808,32.994 232.849 C 32.045 231.890,31.203 231.105,31.123 231.105 C 31.043 231.105,31.754 231.890,32.703 232.849 M37.209 237.645 C 38.239 238.685,39.147 239.535,39.227 239.535 C 39.307 239.535,38.530 238.685,37.500 237.645 C 36.470 236.606,35.562 235.756,35.482 235.756 C 35.402 235.756,36.179 236.606,37.209 237.645 M41.424 242.151 C 42.535 243.270,43.509 244.186,43.589 244.186 C 43.669 244.186,42.826 243.270,41.715 242.151 C 40.605 241.032,39.630 240.116,39.550 240.116 C 39.471 240.116,40.314 241.032,41.424 242.151 " stroke="none" fill="#343434" fill-rule="evenodd"></path><path id="path3" d="M175.823 197.602 C 193.143 197.643,221.399 197.643,238.613 197.602 C 255.828 197.560,241.657 197.526,207.122 197.526 C 172.587 197.526,158.502 197.560,175.823 197.602 M1.890 199.709 C 2.677 200.509,3.387 201.163,3.467 201.163 C 3.546 201.163,2.968 200.509,2.180 199.709 C 1.393 198.910,0.683 198.256,0.603 198.256 C 0.523 198.256,1.102 198.910,1.890 199.709 M6.541 204.651 C 7.328 205.451,8.038 206.105,8.118 206.105 C 8.198 206.105,7.619 205.451,6.831 204.651 C 6.044 203.852,5.334 203.198,5.254 203.198 C 5.174 203.198,5.753 203.852,6.541 204.651 M11.034 209.375 C 11.747 210.134,12.369 210.756,12.415 210.756 C 12.633 210.756,12.403 210.495,11.119 209.290 L 9.738 207.994 11.034 209.375 M15.698 214.390 C 16.240 214.949,16.749 215.407,16.829 215.407 C 16.909 215.407,16.531 214.949,15.988 214.390 C 15.446 213.830,14.937 213.372,14.857 213.372 C 14.777 213.372,15.155 213.830,15.698 214.390 M20.349 219.331 C 20.891 219.891,21.400 220.349,21.480 220.349 C 21.560 220.349,21.182 219.891,20.640 219.331 C 20.097 218.772,19.588 218.314,19.508 218.314 C 19.428 218.314,19.806 218.772,20.349 219.331 M24.709 223.983 C 25.252 224.542,25.761 225.000,25.841 225.000 C 25.921 225.000,25.542 224.542,25.000 223.983 C 24.458 223.423,23.948 222.965,23.869 222.965 C 23.789 222.965,24.167 223.423,24.709 223.983 M28.488 227.998 C 28.488 228.048,28.914 228.473,29.433 228.943 L 30.378 229.797 29.524 228.852 C 28.728 227.971,28.488 227.773,28.488 227.998 M33.721 233.576 C 34.263 234.135,34.772 234.593,34.852 234.593 C 34.932 234.593,34.554 234.135,34.012 233.576 C 33.469 233.016,32.960 232.558,32.880 232.558 C 32.800 232.558,33.179 233.016,33.721 233.576 M38.081 238.227 C 38.624 238.786,39.133 239.244,39.213 239.244 C 39.293 239.244,38.914 238.786,38.372 238.227 C 37.830 237.667,37.321 237.209,37.241 237.209 C 37.161 237.209,37.539 237.667,38.081 238.227 M41.860 242.242 C 41.860 242.292,42.286 242.717,42.805 243.187 L 43.750 244.041 42.896 243.096 C 42.100 242.215,41.860 242.018,41.860 242.242 M46.221 246.893 C 46.221 246.943,46.646 247.368,47.166 247.838 L 48.110 248.692 47.257 247.747 C 46.461 246.866,46.221 246.669,46.221 246.893 M50.581 251.544 C 50.581 251.594,51.007 252.020,51.526 252.489 L 52.471 253.343 51.617 252.398 C 50.821 251.518,50.581 251.320,50.581 251.544 M55.233 256.486 C 55.233 256.536,55.658 256.961,56.177 257.431 L 57.122 258.285 56.268 257.340 C 55.472 256.459,55.233 256.262,55.233 256.486 M59.593 261.137 C 59.593 261.188,60.018 261.613,60.538 262.082 L 61.483 262.936 60.629 261.991 C 59.833 261.111,59.593 260.913,59.593 261.137 M63.953 265.789 C 63.953 265.839,64.379 266.264,64.898 266.733 L 65.843 267.587 64.989 266.642 C 64.193 265.762,63.953 265.564,63.953 265.789 M68.314 270.440 C 68.314 270.490,68.739 270.915,69.259 271.385 L 70.203 272.238 69.350 271.294 C 68.554 270.413,68.314 270.215,68.314 270.440 M72.674 275.091 C 72.674 275.141,73.100 275.566,73.619 276.036 L 74.564 276.890 73.710 275.945 C 72.914 275.064,72.674 274.866,72.674 275.091 M77.326 280.033 C 77.326 280.083,77.751 280.508,78.270 280.978 L 79.215 281.831 78.361 280.887 C 77.565 280.006,77.326 279.808,77.326 280.033 M81.686 284.684 C 81.686 284.734,82.111 285.159,82.631 285.629 L 83.576 286.483 82.722 285.538 C 81.926 284.657,81.686 284.459,81.686 284.684 M86.047 289.335 C 86.047 289.385,86.472 289.810,86.991 290.280 L 87.936 291.134 87.082 290.189 C 86.286 289.308,86.047 289.111,86.047 289.335 M90.407 293.986 C 90.407 294.036,90.832 294.461,91.352 294.931 L 92.297 295.785 91.443 294.840 C 90.647 293.959,90.407 293.762,90.407 293.986 M94.767 298.637 C 94.767 298.688,95.193 299.113,95.712 299.582 L 96.657 300.436 95.803 299.491 C 95.007 298.611,94.767 298.413,94.767 298.637 M99.419 303.579 C 99.419 303.629,99.844 304.055,100.363 304.524 L 101.308 305.378 100.454 304.433 C 99.658 303.552,99.419 303.355,99.419 303.579 M103.779 308.230 C 103.779 308.281,104.204 308.706,104.724 309.175 L 105.669 310.029 104.815 309.084 C 104.019 308.204,103.779 308.006,103.779 308.230 " stroke="none" fill="#4c4c4c" fill-rule="evenodd"></path><path id="path4" d="M311.046 74.026 C 310.647 74.264,310.549 74.388,310.828 74.302 C 311.108 74.216,311.337 74.246,311.337 74.367 C 311.337 74.566,309.109 81.267,308.565 82.703 C 308.416 83.097,308.440 83.191,308.641 82.994 C 308.926 82.715,311.982 73.804,311.841 73.663 C 311.803 73.625,311.446 73.789,311.046 74.026 M307.347 75.953 C 305.246 77.200,305.597 77.245,307.869 76.020 C 308.897 75.466,309.542 75.022,309.302 75.033 C 309.063 75.043,308.183 75.458,307.347 75.953 M300.513 79.741 C 297.837 81.211,295.646 82.499,295.643 82.604 C 295.639 82.809,304.900 77.761,305.363 77.306 C 305.849 76.829,305.470 77.019,300.513 79.741 M293.396 83.662 C 291.123 84.977,291.184 85.189,293.482 83.964 C 295.451 82.914,295.488 82.889,295.325 82.733 C 295.258 82.669,294.390 83.087,293.396 83.662 M307.479 85.822 C 307.051 87.126,306.750 88.242,306.809 88.301 C 306.868 88.361,307.271 87.346,307.703 86.047 C 308.136 84.747,308.438 83.631,308.373 83.567 C 308.309 83.503,307.906 84.517,307.479 85.822 M288.462 86.413 C 286.992 87.243,285.833 87.964,285.885 88.017 C 285.999 88.131,290.719 85.551,291.119 85.156 C 291.604 84.678,291.193 84.872,288.462 86.413 M283.360 89.180 C 282.282 89.775,281.399 90.353,281.398 90.464 C 281.395 90.675,284.824 88.821,285.305 88.351 C 285.771 87.896,285.397 88.055,283.360 89.180 M306.025 90.168 C 305.762 90.990,305.657 91.543,305.791 91.398 C 306.107 91.055,306.780 88.951,306.623 88.794 C 306.557 88.728,306.288 89.346,306.025 90.168 M279.128 91.496 C 278.121 92.054,277.346 92.559,277.407 92.620 C 277.497 92.710,280.657 91.141,281.080 90.796 C 281.708 90.285,280.597 90.683,279.128 91.496 M305.250 92.542 C 304.248 95.176,302.651 100.079,302.870 99.847 C 303.194 99.503,305.858 91.860,305.654 91.860 C 305.574 91.860,305.392 92.167,305.250 92.542 M274.203 94.251 C 272.726 95.071,271.566 95.791,271.627 95.852 C 271.751 95.975,276.445 93.429,276.875 93.005 C 277.347 92.540,276.975 92.713,274.203 94.251 M269.041 97.093 C 268.561 97.411,268.273 97.671,268.401 97.673 C 268.721 97.675,270.349 96.820,270.349 96.650 C 270.349 96.374,269.894 96.528,269.041 97.093 M261.720 101.136 C 258.973 102.670,256.618 104.044,256.488 104.189 C 256.200 104.510,255.777 104.729,261.773 101.442 C 267.251 98.439,267.004 98.585,266.836 98.447 C 266.770 98.392,264.467 99.602,261.720 101.136 M302.309 101.061 C 302.148 101.485,302.058 101.960,302.110 102.116 C 302.163 102.272,302.351 101.926,302.529 101.345 C 302.903 100.127,302.743 99.920,302.309 101.061 M301.197 104.395 C 300.861 105.391,300.635 106.256,300.697 106.317 C 300.758 106.378,301.083 105.613,301.419 104.617 C 301.756 103.621,301.981 102.756,301.920 102.695 C 301.859 102.634,301.533 103.399,301.197 104.395 M254.797 104.942 C 254.317 105.260,254.029 105.520,254.157 105.521 C 254.476 105.524,256.105 104.669,256.105 104.498 C 256.105 104.222,255.650 104.377,254.797 104.942 M300.032 107.590 C 299.853 108.104,299.758 108.575,299.820 108.638 C 299.882 108.700,300.079 108.330,300.258 107.817 C 300.437 107.303,300.533 106.832,300.471 106.769 C 300.409 106.707,300.211 107.077,300.032 107.590 M298.394 112.573 C 297.660 114.552,296.538 118.147,296.627 118.236 C 296.689 118.297,297.202 116.967,297.767 115.279 C 298.333 113.591,298.735 112.209,298.662 112.209 C 298.588 112.209,298.468 112.373,298.394 112.573 M295.980 119.459 C 295.791 120.000,295.699 120.505,295.775 120.582 C 295.970 120.776,296.554 119.166,296.427 118.786 C 296.370 118.615,296.169 118.918,295.980 119.459 M295.398 121.439 C 294.988 122.237,293.242 127.641,293.357 127.757 C 293.414 127.814,293.999 126.301,294.657 124.395 C 295.785 121.128,296.000 120.269,295.398 121.439 M290.438 135.799 C 290.100 136.799,289.938 137.493,290.077 137.341 C 290.396 136.992,291.316 134.243,291.165 134.091 C 291.103 134.030,290.776 134.798,290.438 135.799 M289.673 138.154 C 288.952 140.109,288.105 142.854,288.196 142.944 C 288.258 143.006,288.706 141.872,289.192 140.424 C 289.886 138.353,290.274 136.526,289.673 138.154 M287.096 145.535 C 286.680 146.775,286.455 147.665,286.596 147.514 C 286.980 147.104,288.189 143.615,288.009 143.436 C 287.924 143.350,287.513 144.295,287.096 145.535 M285.460 150.449 C 285.090 151.422,284.763 152.801,284.946 152.616 C 285.170 152.390,286.028 149.709,285.876 149.709 C 285.802 149.709,285.615 150.042,285.460 150.449 M283.614 155.879 C 283.030 157.522,282.562 158.997,282.572 159.157 C 282.583 159.317,283.110 158.022,283.744 156.280 C 284.377 154.538,284.846 153.063,284.785 153.002 C 284.725 152.942,284.198 154.236,283.614 155.879 M20.640 219.858 C 20.640 219.908,21.065 220.334,21.584 220.803 L 22.529 221.657 21.675 220.712 C 20.879 219.832,20.640 219.634,20.640 219.858 " stroke="none" fill="#3c3c3c" fill-rule="evenodd"></path></g></svg>