<svg id="svg" version="1.1" xmlns="http://www.w3.org/2000/svg" xmlns:xlink="http://www.w3.org/1999/xlink" width="400" height="411.96207148067106" viewBox="0, 0, 400,411.96207148067106"><g id="svgg"><path id="path3" d="M0.292 197.795 C 0.292 197.946,0.443 198.163,0.629 198.277 C 0.837 198.406,0.886 198.357,0.758 198.149 C 0.601 197.896,18.326 197.795,72.704 197.739 L 144.858 197.665 72.575 197.592 C 27.552 197.547,0.292 197.624,0.292 197.795 M3.793 201.696 C 3.793 201.746,4.220 202.173,4.741 202.644 L 5.689 203.501 4.832 202.553 C 4.034 201.669,3.793 201.471,3.793 201.696 M8.169 206.364 C 8.169 206.414,8.596 206.841,9.117 207.312 L 10.066 208.169 9.209 207.221 C 8.410 206.337,8.169 206.139,8.169 206.364 M17.214 215.992 C 17.214 216.042,17.640 216.469,18.162 216.940 L 19.110 217.797 18.253 216.849 C 17.454 215.965,17.214 215.767,17.214 215.992 " stroke="none" fill="#cdcdcd" fill-rule="evenodd"></path><path id="path4" d="M0.875 198.487 C 0.875 198.537,1.302 198.964,1.823 199.435 L 2.772 200.292 1.915 199.344 C 1.116 198.460,0.875 198.261,0.875 198.487 " stroke="none" fill="#c4c4c4" fill-rule="evenodd"></path><path id="path5" d="M2.322 200.219 C 3.037 200.981,3.661 201.605,3.708 201.605 C 3.927 201.605,3.695 201.343,2.407 200.134 L 1.021 198.833 2.322 200.219 " stroke="none" fill="#dcdcdc" fill-rule="evenodd"></path><path id="path6" d="M5.398 203.647 C 6.024 204.289,6.603 204.814,6.683 204.814 C 6.763 204.814,6.316 204.289,5.689 203.647 C 5.063 203.005,4.484 202.480,4.404 202.480 C 4.324 202.480,4.771 203.005,5.398 203.647 M9.628 208.115 C 9.628 208.165,10.055 208.592,10.576 209.063 L 11.524 209.920 10.668 208.972 C 9.869 208.088,9.628 207.889,9.628 208.115 " stroke="none" fill="#e4e4e4" fill-rule="evenodd"></path><path id="path7" d="M176.149 197.739 C 193.359 197.780,221.521 197.780,238.731 197.739 C 255.941 197.697,241.860 197.663,207.440 197.663 C 173.020 197.663,158.939 197.697,176.149 197.739 M27.279 226.988 C 27.906 227.629,28.485 228.155,28.565 228.155 C 28.645 228.155,28.198 227.629,27.571 226.988 C 26.944 226.346,26.366 225.821,26.286 225.821 C 26.205 225.821,26.653 226.346,27.279 226.988 M31.510 231.455 C 31.510 231.505,31.937 231.932,32.458 232.403 L 33.406 233.260 32.549 232.312 C 31.751 231.428,31.510 231.230,31.510 231.455 " stroke="none" fill="#ececec" fill-rule="evenodd"></path><path id="path0" d="M206.517 5.179 C 205.609 8.027,202.020 19.220,198.543 30.051 C 195.065 40.883,191.106 53.224,189.744 57.476 C 188.381 61.729,185.558 70.525,183.469 77.024 C 181.381 83.523,178.578 92.254,177.242 96.426 C 168.330 124.241,167.427 127.033,154.722 166.010 C 152.395 173.151,149.147 183.129,147.505 188.184 L 144.520 197.374 207.246 197.448 C 241.745 197.488,270.031 197.462,270.104 197.389 C 270.177 197.317,272.248 191.067,274.707 183.502 L 279.177 169.747 265.819 138.338 C 258.471 121.063,251.136 103.713,249.518 99.781 C 247.899 95.850,244.743 88.169,242.503 82.713 C 237.861 71.406,225.127 40.424,218.101 23.341 C 215.494 17.002,212.271 9.158,210.939 5.908 C 209.606 2.659,208.438 0.000,208.343 0.000 C 208.247 0.000,207.426 2.330,206.517 5.179 M1.777 199.198 C 12.494 210.910,107.804 312.146,107.954 311.977 C 108.165 311.740,144.099 199.676,144.351 198.468 L 144.488 197.812 72.499 197.812 L 0.509 197.812 1.777 199.198 " stroke="none" fill="#bcbcbc" fill-rule="evenodd"></path><path id="path1" d="M282.133 89.863 C 265.847 98.838,252.480 106.310,252.427 106.468 C 252.349 106.704,278.762 169.098,279.105 169.487 C 279.329 169.741,289.109 141.362,310.442 78.556 C 311.382 75.788,312.059 73.528,311.947 73.534 C 311.835 73.540,298.419 80.888,282.133 89.863 " stroke="none" fill="#7c7c7c" fill-rule="evenodd"></path><path id="path2" d="M207.433 197.739 L 144.845 197.813 126.656 254.632 C 116.651 285.883,108.354 311.749,108.216 312.112 C 107.988 312.714,107.170 311.925,99.125 303.360 C 94.263 298.182,79.222 282.163,65.700 267.761 C 52.179 253.359,41.056 241.575,40.982 241.575 C 40.908 241.575,62.476 264.716,88.911 292.998 C 115.346 321.280,151.146 359.584,168.467 378.118 C 185.787 396.652,200.104 411.853,200.280 411.898 C 200.564 411.971,399.705 198.413,399.951 197.773 C 400.006 197.631,371.553 197.552,335.035 197.592 C 299.278 197.632,241.857 197.698,207.433 197.739 M21.152 220.569 C 21.779 221.211,22.358 221.736,22.438 221.736 C 22.518 221.736,22.071 221.211,21.444 220.569 C 20.817 219.927,20.239 219.402,20.159 219.402 C 20.079 219.402,20.526 219.927,21.152 220.569 M25.091 224.799 C 25.636 225.361,26.147 225.821,26.227 225.821 C 26.307 225.821,25.927 225.361,25.383 224.799 C 24.839 224.238,24.328 223.778,24.247 223.778 C 24.167 223.778,24.547 224.238,25.091 224.799 M29.905 229.905 C 30.695 230.708,31.408 231.364,31.488 231.364 C 31.568 231.364,30.987 230.708,30.197 229.905 C 29.407 229.103,28.694 228.446,28.614 228.446 C 28.534 228.446,29.115 229.103,29.905 229.905 M34.427 234.719 C 35.461 235.762,36.373 236.616,36.453 236.616 C 36.533 236.616,35.753 235.762,34.719 234.719 C 33.685 233.676,32.774 232.823,32.694 232.823 C 32.614 232.823,33.394 233.676,34.427 234.719 M38.658 239.241 C 39.773 240.365,40.750 241.284,40.830 241.284 C 40.911 241.284,40.064 240.365,38.950 239.241 C 37.835 238.118,36.857 237.199,36.777 237.199 C 36.697 237.199,37.543 238.118,38.658 239.241 " stroke="none" fill="#fbfbfb" fill-rule="evenodd"></path><path id="path3" d="M0.292 197.795 C 0.292 197.946,0.443 198.163,0.629 198.277 C 0.837 198.406,0.886 198.357,0.758 198.149 C 0.601 197.896,18.326 197.795,72.704 197.739 L 144.858 197.665 72.575 197.592 C 27.552 197.547,0.292 197.624,0.292 197.795 M3.793 201.696 C 3.793 201.746,4.220 202.173,4.741 202.644 L 5.689 203.501 4.832 202.553 C 4.034 201.669,3.793 201.471,3.793 201.696 M8.169 206.364 C 8.169 206.414,8.596 206.841,9.117 207.312 L 10.066 208.169 9.209 207.221 C 8.410 206.337,8.169 206.139,8.169 206.364 M17.214 215.992 C 17.214 216.042,17.640 216.469,18.162 216.940 L 19.110 217.797 18.253 216.849 C 17.454 215.965,17.214 215.767,17.214 215.992 " stroke="none" fill="#cdcdcd" fill-rule="evenodd"></path><path id="path4" d="M0.875 198.487 C 0.875 198.537,1.302 198.964,1.823 199.435 L 2.772 200.292 1.915 199.344 C 1.116 198.460,0.875 198.261,0.875 198.487 " stroke="none" fill="#c4c4c4" fill-rule="evenodd"></path><path id="path5" d="M2.322 200.219 C 3.037 200.981,3.661 201.605,3.708 201.605 C 3.927 201.605,3.695 201.343,2.407 200.134 L 1.021 198.833 2.322 200.219 " stroke="none" fill="#dcdcdc" fill-rule="evenodd"></path><path id="path6" d="M5.398 203.647 C 6.024 204.289,6.603 204.814,6.683 204.814 C 6.763 204.814,6.316 204.289,5.689 203.647 C 5.063 203.005,4.484 202.480,4.404 202.480 C 4.324 202.480,4.771 203.005,5.398 203.647 M9.628 208.115 C 9.628 208.165,10.055 208.592,10.576 209.063 L 11.524 209.920 10.668 208.972 C 9.869 208.088,9.628 207.889,9.628 208.115 " stroke="none" fill="#e4e4e4" fill-rule="evenodd"></path><path id="path7" d="M176.149 197.739 C 193.359 197.780,221.521 197.780,238.731 197.739 C 255.941 197.697,241.860 197.663,207.440 197.663 C 173.020 197.663,158.939 197.697,176.149 197.739 M27.279 226.988 C 27.906 227.629,28.485 228.155,28.565 228.155 C 28.645 228.155,28.198 227.629,27.571 226.988 C 26.944 226.346,26.366 225.821,26.286 225.821 C 26.205 225.821,26.653 226.346,27.279 226.988 M31.510 231.455 C 31.510 231.505,31.937 231.932,32.458 232.403 L 33.406 233.260 32.549 232.312 C 31.751 231.428,31.510 231.230,31.510 231.455 " stroke="none" fill="#ececec" fill-rule="evenodd"></path></g></svg>